<?xml version="1.0" encoding="iso-8859-1"?>
<!-- Generator: Adobe Illustrator 19.0.0, SVG Export Plug-In . SVG Version: 6.00 Build 0)  -->
<svg version="1.1" id="Capa_1" xmlns="http://www.w3.org/2000/svg" xmlns:xlink="http://www.w3.org/1999/xlink" x="0px" y="0px"
	 viewBox="0 0 473.681 473.681" style="enable-background:new 0 0 473.681 473.681;" xml:space="preserve">
<circle style="fill:#FFFFFF;" cx="236.85" cy="236.85" r="236.83"/>
<path style="fill:#D32027;" d="M0.002,236.842c0,89.021,49.142,166.531,121.749,206.989V29.842
	C49.144,70.304,0.002,147.81,0.002,236.842z"/>
<path style="fill:#FFFFFF;" d="M236.837,473.677c-2.726,0-5.348-0.093-8.021-0.138C231.473,473.628,234.146,473.677,236.837,473.677
	z"/>
<path style="fill:#E7E7E7;" d="M236.837,0c-0.075,0-0.138,0.004-0.213,0.004C236.697,0.004,236.764,0,236.837,0
	c130.807,0,130.807,473.681,0,473.681c41.704,0,80.861-10.819,114.898-29.741V29.737C317.697,10.815,278.54,0,236.837,0z"/>
<path style="fill:#B52025;" d="M351.734,29.737v414.199c72.716-40.429,121.944-117.999,121.944-207.094
	C473.678,147.736,424.451,70.166,351.734,29.737z"/>
<path style="fill:#F3F1F2;" d="M236.837,0c-0.075,0-0.138,0-0.213,0c-41.696,0.037-80.853,10.89-114.876,29.842v413.986
	c31.887,17.767,68.292,28.417,107.068,29.707c2.674,0.045,5.295,0.138,8.021,0.138C367.643,473.677,367.643,0,236.837,0z"/>
<path style="fill:#D32027;" d="M328.747,232.56c-3.257-3.111-9.94-2.767-11.133-7.939c-1.578-12.703,4.267-20.1,7.954-28.589
	c-18.66,4.364-33.372,11.548-33.357-9.528c-10.714,13.1-22.232,26.199-26.989,23.821c-6.757-3.971,6.484-37.687,7.932-55.578
	c-6.537,2.984-19.057,9.528-19.057,9.528s-11.38-22.258-17.404-33.237v-0.12c-0.022,0.022-0.022,0.041-0.03,0.06
	c-0.015-0.015-0.015-0.037-0.03-0.06v0.12c-6.032,10.979-17.404,33.237-17.404,33.237s-12.528-6.544-19.057-9.528
	c1.44,17.894,14.682,51.61,7.924,55.578c-4.76,2.382-16.275-10.721-26.981-23.821c0,21.076-14.704,13.893-33.357,9.528
	c3.68,8.485,9.525,15.882,7.932,28.589c-1.174,5.172-7.861,4.828-11.118,7.939c21.648,21.641,59.168,37.714,41.296,55.581
	l48.184-4.495c1.578,16.282-3.519,36.263,0.905,47.38c1.036,0,0.696,0,1.672,0c0.015,0,0.037,0,0.06,0c0.972,0,0.613,0,1.642,0
	c4.514-11.518-0.643-31.095,0.935-47.38l48.177,4.495C269.588,270.274,307.107,254.201,328.747,232.56z"/>
<g>
</g>
<g>
</g>
<g>
</g>
<g>
</g>
<g>
</g>
<g>
</g>
<g>
</g>
<g>
</g>
<g>
</g>
<g>
</g>
<g>
</g>
<g>
</g>
<g>
</g>
<g>
</g>
<g>
</g>
</svg>
