<?xml version="1.0" encoding="UTF-8" standalone="no"?>
<svg
   xmlns:dc="http://purl.org/dc/elements/1.1/"
   xmlns:cc="http://creativecommons.org/ns#"
   xmlns:rdf="http://www.w3.org/1999/02/22-rdf-syntax-ns#"
   xmlns:svg="http://www.w3.org/2000/svg"
   xmlns="http://www.w3.org/2000/svg"
   xmlns:sodipodi="http://sodipodi.sourceforge.net/DTD/sodipodi-0.dtd"
   xmlns:inkscape="http://www.inkscape.org/namespaces/inkscape"
   id="Layer_1"
   data-name="Layer 1"
   viewBox="0 0 537.91 562.85"
   version="1.1"
   sodipodi:docname="chef.svg"
   inkscape:version="1.0.1 (0767f8302a, 2020-10-17)">
  <metadata
     id="metadata139">
    <rdf:RDF>
      <cc:Work
         rdf:about="">
        <dc:format>image/svg+xml</dc:format>
        <dc:type
           rdf:resource="http://purl.org/dc/dcmitype/StillImage" />
        <dc:title>Chef-header</dc:title>
      </cc:Work>
    </rdf:RDF>
  </metadata>
  <sodipodi:namedview
     pagecolor="#ffffff"
     bordercolor="#666666"
     borderopacity="1"
     objecttolerance="10"
     gridtolerance="10"
     guidetolerance="10"
     inkscape:pageopacity="0"
     inkscape:pageshadow="2"
     inkscape:window-width="1920"
     inkscape:window-height="1014"
     id="namedview137"
     showgrid="false"
     inkscape:zoom="1.5083948"
     inkscape:cx="268.95499"
     inkscape:cy="281.42499"
     inkscape:window-x="0"
     inkscape:window-y="34"
     inkscape:window-maximized="0"
     inkscape:current-layer="Layer_1" />
  <defs
     id="defs4">
    <style
       id="style2">.cls-1{fill:#f18618;}.cls-2{fill:#5f3210;}.cls-3{fill:#f6a12c;}.cls-4{fill:#fff;}.cls-5{fill:#e94f1a;}.cls-6{fill:#e6520f;}.cls-7{fill:#e97809;}.cls-8{fill:#f0f0f0;}.cls-10,.cls-11,.cls-13,.cls-16,.cls-17,.cls-9{fill:none;}.cls-9{stroke:#e4e4e3;}.cls-10,.cls-16,.cls-17,.cls-9{stroke-linecap:round;}.cls-10,.cls-11,.cls-16,.cls-17,.cls-9{stroke-miterlimit:10;}.cls-10,.cls-9{stroke-width:4px;}.cls-10{stroke:#f0f0f0;}.cls-11{stroke:#203541;}.cls-11,.cls-16,.cls-17{stroke-width:3px;}.cls-12{fill:#9f6526;}.cls-14{fill:#854c13;}.cls-15{fill:#8a4d16;}.cls-16{stroke:#70390f;}.cls-17{stroke:#ea6c08;}</style>
  </defs>
  <title
     id="title6">Chef-header</title>
  <path
     class="cls-1"
     d="m 323.24521,191.64 v 12.5 a -8.12,8.12 0 0 0 7.06,8.19 -7.88,7.88 0 0 0 8.67,-7.82 v -20.95 a -3.44,3.44 0 0 1 2.69,-3.37 c 2.87,-0.62 5.8,-1.11 8.77,-1.47 a -3.47,3.47 0 0 1 3.9,3.44 v 22 a -8.12,8.12 0 0 0 7.06,8.19 -7.88,7.88 0 0 0 8.68,-7.82 v -22.37 a -3.47,3.47 0 0 1 3.9,-3.44 q 4.45,0.54 8.77,1.47 a -3.43,3.43 0 0 1 2.68,3.37 v 20.58 a -8.12,8.12 0 0 0 7.07,8.19 -7.88,7.88 0 0 0 8.67,-7.82 v -12.87 a -3.46,3.46 0 0 1 5,-3.1 -96.8,96.8 0 0 1 52.87,86.28 v 70.58 a -73.56,73.56 0 0 1 -73.57,73.6 h -46.54 a -73.57,73.57 0 0 1 -73.57,-73.57 v -70.61 a -96.82,96.82 0 0 1 52.87,-86.28 -3.46,3.46 0 0 1 5.02,3.1 z"
     id="path8" />
  <path
     class="cls-2"
     d="m 315.59521,336.16 a -44.9,44.9 0 0 0 82.8,-0.23 z"
     id="path10" />
  <path
     class="cls-3"
     d="m 403.75521,356.43 a -16.85,16.85 0 0 1 -0.09,-31.08 -5.0166149,5.0166149 0 1 1 3.91,9.24 -7,7 0 0 0 -3,2.48 -6.81,6.81 0 0 0 0,7.62 -6.91,6.91 0 0 0 3,2.47 -5.0207694,5.0207694 0 0 1 -3.86,9.27 z"
     id="path12" />
  <path
     class="cls-1"
     d="m 298.41521,479.22 a -105.48,105.48 0 0 1 -15,-1.57 -172.65,172.65 0 0 1 -33.37,-9.24 -191.26,191.26 0 0 1 -32.38,-16.18 -211.74,211.74 0 0 1 -51.86,-46 c -16.79,-20.51 -32.35,-46.65 -44.82,-79.68 l 31.25,-11.8 c 10,26.58 22,47.57 34.66,64.27 a -189.38,189.38 0 0 0 29.13,30.85 -162.84,162.84 0 0 0 41.87,25.73 -140.52,140.52 0 0 0 31,9.13 c 3.41,0.57 6.05,0.85 7.75,1 0.85,0.07 1.47,0.1 1.82,0.12 h 0.36 l -0.06,2.53 v -2.53 0 l -0.06,2.53 v -2.53 l -0.18,11.88 0.11,-11.88 h 0.07 l -0.18,11.88 0.11,-11.88 -0.3,33.41 z"
     id="path14" />
  <path
     class="cls-3"
     d="m 306.38521,347.16 a -6.88,6.88 0 0 0 3,-2.47 -6.76,6.76 0 0 0 1.17,-3.82 -6.67,6.67 0 0 0 -1.16,-3.8 -6.86,6.86 0 0 0 -3,-2.48 -5.0166149,5.0166149 0 1 1 3.91,-9.24 -16.85,16.85 0 0 1 -0.08,31.08 -5.0207694,5.0207694 0 1 1 -3.86,-9.27 z"
     id="path16" />
  <path
     class="cls-4"
     d="m 297.74521,562.75 h 129.11 V 449.52 a -15.88,15.88 0 0 0 -15.93,-15.88 h -113.18 z"
     id="path18" />
  <rect
     class="cls-1"
     x="-389.74521"
     y="408.28"
     width="63.16"
     height="30.690001"
     id="rect20"
     transform="scale(-1,1)" />
  <path
     class="cls-5"
     d="m 352.92521,349.75 h 36.41 a -44.82,44.82 0 0 1 -48.18,10.94 -11.82,11.82 0 0 1 11.77,-10.94 z"
     id="path22" />
  <polyline
     class="cls-6"
     points="141.18 419.69 165.68 419.69 165.68 418.26 141.18 418.26"
     id="polyline24"
     transform="matrix(-1,0,0,1,530.92521,0)" />
  <path
     class="cls-2"
     d="m 395.05521,295.57 v 7.86 a -5.16,5.16 0 1 1 -10.31,0 v -7.86 a -5.16,5.16 0 1 1 10.31,0"
     id="path26" />
  <path
     class="cls-2"
     d="m 328.29521,295.57 v 7.86 a -5.16,5.16 0 1 1 -10.31,0 v -7.86 a -5.16,5.16 0 1 1 10.31,0"
     id="path28" />
  <path
     class="cls-4"
     d="m 462.69521,174 h -187.77 a -12.5,12.5 0 0 0 -12.5,12.5 V 278 h 200.27 z"
     id="path30" />
  <rect
     class="cls-7"
     x="-459.03522"
     y="255.48"
     width="193.67"
     height="26.610001"
     id="rect32"
     transform="scale(-1,1)" />
  <rect
     class="cls-8"
     x="-462.69519"
     y="251.36"
     width="200.28999"
     height="26.610001"
     id="rect34"
     transform="scale(-1,1)" />
  <circle
     class="cls-4"
     cx="-364.5152"
     cy="82.43"
     r="57.5"
     id="circle36"
     transform="scale(-1,1)" />
  <path
     class="cls-4"
     d="m 463.18057,122.83053 -200.28794,-0.90888 -0.30231,66.61931 a 9.57,9.57 0 0 0 9.52647,9.61333 l 190.71804,0.86546 z"
     id="path38" />
  <circle
     class="cls-4"
     cx="-450.15521"
     cy="128.99001"
     r="57.5"
     id="circle40"
     transform="scale(-1,1)" />
  <circle
     class="cls-4"
     cx="-280.88522"
     cy="128.22"
     r="57.5"
     id="circle42"
     transform="scale(-1,1)" />
  <line
     class="cls-9"
     x1="460.69519"
     y1="251.36"
     x2="331.71521"
     y2="251.36"
     id="line44" />
  <line
     class="cls-9"
     x1="293.34521"
     y1="251.36"
     x2="319.75522"
     y2="251.36"
     id="line46" />
  <line
     class="cls-10"
     x1="419.72522"
     y1="235.62"
     x2="419.72522"
     y2="180.13"
     id="line48" />
  <line
     class="cls-10"
     x1="364.46521"
     y1="235.62"
     x2="364.46521"
     y2="180.13"
     id="line50" />
  <line
     class="cls-10"
     x1="308.94522"
     y1="235.62"
     x2="308.94522"
     y2="180.13"
     id="line52" />
  <polygon
     class="cls-4"
     points="319.69,462.49 319.68,462.49 319.69,462.49 "
     id="polygon54"
     transform="matrix(-1,0,0,1,530.92521,0)" />
  <path
     class="cls-4"
     d="m 196.50521,371.68 a -177,177 0 0 0 27.27,28.89 -150.78,150.78 0 0 0 38.77,23.84 -128.11,128.11 0 0 0 28.3,8.35 v 0 c 3,0.5 5.35,0.75 6.73,0.86 v 0 c 0.69,0.06 1.15,0.08 1.35,0.09 h 0.42 0.39 0.42 0.18 l 0.63,0.1 0.34,0.06 h 0.05 0.14 c 0.23,0 0.45,0.11 0.68,0.18 l 0.27,0.07 h 0.07 0.08 c 0.25,0.08 0.5,0.18 0.75,0.28 l 0.32,0.13 q 0.41,0.18 0.78,0.39 l 0.26,0.13 c 0.27,0.15 0.53,0.32 0.79,0.49 l 0.19,0.13 a -9.73,9.73 0 0 1 0.79,0.61 l 0.14,0.11 c 0.28,0.23 0.54,0.48 0.8,0.74 l 0.05,0.05 v 0 a -12.06,12.06 0 0 1 3.38,8.66 l -0.05,2.45 -0.15,9.34 -0.19,21.45 a -12.1,12.1 0 0 1 -12.22,12 -116.38,116.38 0 0 1 -16.89,-1.74 v 0 a -183.67,183.67 0 0 1 -35.72,-9.88 -203.15,203.15 0 0 1 -34.44,-17.2 -223.92,223.92 0 0 1 -54.82,-48.64 -275.74,275.74 0 0 1 -33.44,-52.14 l 53.43,-22 a -221.29,221.29 0 0 0 20.15,32.2 z"
     id="path56" />
  <polygon
     class="cls-4"
     points="374.51,413.85 374.51,413.85 "
     id="polygon58"
     transform="matrix(-1,0,0,1,530.92521,0)" />
  <polygon
     class="cls-4"
     points="48.15,500.61 48.15,500.6 48.15,500.61 "
     id="polygon60"
     transform="matrix(-1,0,0,1,530.92521,0)" />
  <path
     class="cls-4"
     d="m 454.18521,588.05 a -177.42,177.42 0 0 0 -11,-38.19 -151,151 0 0 0 -23.51,-39 -128.43,128.43 0 0 0 -21.31,-20.41 v 0 0 c -2.47,-1.84 -4.41,-3.12 -5.58,-3.85 v 0 c -0.58,-0.37 -1,-0.6 -1.15,-0.7 v 0 h -0.07 v 0 l -0.24,-0.13 v 0 l -0.33,-0.21 -0.36,-0.23 -0.15,-0.11 -0.51,-0.37 -0.27,-0.21 v 0 l -0.11,-0.1 c -0.18,-0.15 -0.35,-0.31 -0.52,-0.48 l -0.21,-0.18 -0.05,-0.06 -0.06,-0.06 c -0.18,-0.19 -0.36,-0.39 -0.53,-0.6 a -2.85,2.85 0 0 1 -0.23,-0.26 c -0.18,-0.23 -0.35,-0.46 -0.52,-0.7 l -0.16,-0.24 c -0.17,-0.26 -0.33,-0.53 -0.48,-0.8 a -2,2 0 0 1 -0.11,-0.2 c -0.16,-0.3 -0.3,-0.6 -0.43,-0.9 0,-0.06 -0.05,-0.11 -0.07,-0.16 a -9.67,9.67 0 0 1 -0.36,-1 v -0.07 0 a -12,12 0 0 1 1,-9.24 l 1.17,-2.16 4.42,-8.23 10,-19 a -12.09,12.09 0 0 1 16.35,-5 -114.56,114.56 0 0 1 14.21,9.29 v 0 a -184.24,184.24 0 0 1 27.2,25.18 -203.29,203.29 0 0 1 22.7,31.09 -223.35,223.35 0 0 1 26.24,68.24 -275.33,275.33 0 0 1 5.68,61.88 l -57.55,-5 a -220.75,220.75 0 0 0 -3.1,-37.83 z"
     id="path62" />
  <line
     class="cls-11"
     x1="185.72519"
     y1="355.97"
     x2="132.21521"
     y2="378.72"
     id="line64" />
  <path
     class="cls-1"
     d="m 125.97334,292.31334 -31.027694,10.09947 a 13.42,13.42 0 0 0 -8.607315,16.9147 l 3.961791,12.17145 a 13.42,13.42 0 0 0 16.914698,8.60732 l 48.01066,-15.62741 -6.74433,-20.72 a 17.86,17.86 0 0 0 -22.50781,-11.44553 z"
     id="path66" />
  <path
     class="cls-12"
     d="m 22.285208,224.86 5.08,-4.92 a -20.8,20.8 0 0 1 29.33,0.44 l 23,23.74 a -20.8,20.8 0 0 1 1.57,27 l 87.330002,90 a -5.61,5.61 0 0 1 -0.12,7.94 l -1.37,1.33 a -5.61,5.61 0 0 1 -7.94,-0.12 l -87.340002,-90 a -20.8,20.8 0 0 1 -27,-2.38 l -23,-23.74 a -20.81,20.81 0 0 1 0.46,-29.29 z"
     id="path68" />
  <path
     class="cls-13"
     d="m 88.545208,298.72 a -11.61,11.61 0 0 1 -6.62,-1.72 -6.39,6.39 0 0 1 -2.16,-2.66 -10.51,10.51 0 0 1 -1,-3.85 -9.42,9.42 0 0 1 0.23,-2.72 l 10.53,10.85 a -7.26,7.26 0 0 1 -0.98,0.1 z"
     id="path70" />
  <path
     class="cls-13"
     d="m 77.925208,290.49 a -11.45,11.45 0 0 0 1.06,4.17 -7.28,7.28 0 0 0 2.46,3 -12.37,12.37 0 0 0 7.11,1.91 -6.12,6.12 0 0 0 1.64,-0.32 l 7.05,7.26 v 0 a -6.63,6.63 0 0 1 -3.09,0.83 -18.87,18.87 0 0 1 -7.61,-1.34 -20.28,20.28 0 0 1 -7.57,-5 -16.91,16.91 0 0 1 -4.38,-10.52 -17.14,17.14 0 0 1 0.85,-6.53 l 2.9,3 a -9.77,9.77 0 0 0 -0.42,3.54 z"
     id="path72" />
  <path
     class="cls-14"
     d="m 107.92521,298.58 1.79,1.84 c 12.56,27 27.36,42 39.24,50.34 a -68.63,68.63 0 0 0 15.66,8.36 c 1.15,0.42 2.15,0.74 3,1 l 1,1.06 a -1.71,1.71 0 0 1 0.11,0.14 c -3.38,-0.85 -10.95,-3.3 -20.29,-9.84 -12.31,-8.65 -27.7,-24.4 -40.51,-52.9 z"
     id="path74" />
  <path
     class="cls-14"
     d="m 128.67521,320 1.55,1.6 a -52.85,52.85 0 0 0 17.41,21.78 -67.54,67.54 0 0 0 9.47,5.92 l 1.77,1.83 a -67.61,67.61 0 0 1 -11.75,-7.13 c -6.98,-5.19 -14.43,-13 -18.45,-24 z"
     id="path76" />
  <path
     class="cls-14"
     d="m 168.50521,369.1 v 0 a -62.88,62.88 0 0 0 -23.22,-13.1 l -1.2,-1.24 a -63.28,63.28 0 0 1 24.94,13.75 -4.94,4.94 0 0 1 -0.52,0.59 z"
     id="path78" />
  <path
     class="cls-14"
     d="m 90.445208,298.23 a -1.4,1.4 0 0 0 0.45,-0.41 -1,1 0 0 0 0.11,-0.52 -1.31,1.31 0 0 0 -0.1,-0.43 -16.89,16.89 0 0 0 -3,-4.77 -14,14 0 0 0 -2,-1.87 -4.2,4.2 0 0 0 -1.66,-0.85 l 0.13,-0.84 a -4.8,4.8 0 0 1 2,1 -18.27,18.27 0 0 1 5.27,7 -2.63,2.63 0 0 1 0.16,0.69 -1.79,1.79 0 0 1 -0.24,1 -2.39,2.39 0 0 1 -1.22,0.95 l -0.17,0.05 -0.66,-0.68 a -3.09,3.09 0 0 0 0.93,-0.32 z"
     id="path80" />
  <path
     class="cls-14"
     d="m 79.465208,278 a -4.29,4.29 0 0 1 1.09,-0.2 -10.05,10.05 0 0 1 5.55,1.77 c 6.05,3.65 13.35,12.52 17.190002,23.47 2.65,7.56 9.73,17.71 16.14,25.94 l 1.43,1.81 -5.2,-5.36 c -5.49,-7.36 -10.88,-15.58 -13.17,-22.11 a -52,52 0 0 0 -10.720002,-17.89 -29.63,29.63 0 0 0 -6.11,-5.13 -9.31,9.31 0 0 0 -5.06,-1.65 -3.6,3.6 0 0 0 -0.89,0.16 -7,7 0 0 0 -3.87,4.08 c -0.15,0.34 -0.27,0.72 -0.4,1.09 l -0.66,-0.67 c 0.1,-0.26 0.18,-0.53 0.28,-0.77 a -7.79,7.79 0 0 1 4.4,-4.54 z"
     id="path82" />
  <path
     class="cls-14"
     d="m 98.005208,305.77 a -1.72,1.72 0 0 0 0.21,-1 -2.54,2.54 0 0 0 -0.13,-0.67 -67.26,67.26 0 0 0 -6,-12.61 -31.33,31.33 0 0 0 -4.47,-5.91 -10,10 0 0 0 -2.24,-1.73 -3.82,3.82 0 0 0 -2,-0.53 -2.49,2.49 0 0 0 -0.71,0.14 -5.31,5.31 0 0 0 -3.09,2.73 -7.46,7.46 0 0 0 -0.53,1.53 l -0.7,-0.73 a -8.18,8.18 0 0 1 0.47,-1.19 -6.22,6.22 0 0 1 3.57,-3.15 -3.73,3.73 0 0 1 0.93,-0.18 -4.7,4.7 0 0 1 2.5,0.63 -14.69,14.69 0 0 1 4.22,3.87 -63.58,63.58 0 0 1 8.89,16.88 -3.49,3.49 0 0 1 0.16,0.87 -2.53,2.53 0 0 1 -0.32,1.47 -2.85,2.85 0 0 1 -0.86,0.94 l -0.6,-0.62 a -2.2,2.2 0 0 0 0.7,-0.74 z"
     id="path84" />
  <path
     class="cls-14"
     d="m 72.525208,275.64 a -4.7,4.7 0 0 1 2.25,-1.74 -7.7,7.7 0 0 1 2.19,-0.45 -10.33,10.33 0 0 1 6.42,2 l -0.53,0.67 v 0 a -9.63,9.63 0 0 0 -5.82,-1.82 -7.06,7.06 0 0 0 -1.95,0.4 -3.87,3.87 0 0 0 -1.84,1.43 -7.87,7.87 0 0 0 -1.21,3.49 c 0,0.26 -0.06,0.52 -0.08,0.77 l -0.08,-0.08 c -0.26,0.18 -0.53,0.35 -0.8,0.52 a -13.7,13.7 0 0 1 0.37,-2.65 -7.66,7.66 0 0 1 1.08,-2.54 z"
     id="path86" />
  <path
     class="cls-14"
     d="m 81.515208,270.83 0.11,0.12 0.27,0.25 0.06,0.05 v 0 l -0.22,0.37 -0.45,-0.47 c 0.09,-0.1 0.15,-0.21 0.23,-0.32 z"
     id="path88" />
  <path
     class="cls-14"
     d="m 78.215208,262.79 c -0.06,-0.83 -0.08,-1.74 -0.06,-2.72 0,-2.92 0.11,-5.72 -0.07,-8.51 a -32.63,32.63 0 0 0 -2.94,-12.16 l 1.63,1.68 a -34.48,34.48 0 0 1 2.15,10.42 c 0.17,2.84 0.1,5.67 0.06,8.58 0,1 0,1.85 0.06,2.66 a -16.39,16.39 0 0 0 1.67,6.95 -6.22,6.22 0 0 0 0.78,1.14 c -0.08,0.11 -0.14,0.22 -0.22,0.32 l 0.45,0.47 -0.23,0.36 c -0.1,-0.07 -2.84,-1.87 -3.28,-9.19 z"
     id="path90" />
  <polygon
     class="cls-14"
     points="448.96,271.25 448.96,271.25 449.02,271.36 "
     id="polygon92"
     transform="matrix(-1,0,0,1,530.92521,0)" />
  <polygon
     class="cls-14"
     points="457.77,240.52 457.76,240.51 "
     id="polygon94"
     transform="matrix(-1,0,0,1,530.92521,0)" />
  <path
     class="cls-14"
     d="m 71.665208,239.68 a -5.17,5.17 0 0 0 1.09,0.67 -1.6,1.6 0 0 0 0.31,0.13 h 0.08 v 0 0 0 l -0.19,0.82 v 0 a -5.2,5.2 0 0 1 -1.83,-1 -9.34,9.34 0 0 1 -2.95,-4.54 l 0.81,-0.27 a -8.66,8.66 0 0 0 2.68,4.19 z"
     id="path96" />
  <polygon
     class="cls-14"
     points="457.77,240.52 457.77,240.53 457.76,240.51 "
     id="polygon98"
     transform="matrix(-1,0,0,1,530.92521,0)" />
  <polygon
     class="cls-14"
     points="464.46,283.05 464.46,283.04 464.32,282.99 "
     id="polygon100"
     transform="matrix(-1,0,0,1,530.92521,0)" />
  <path
     class="cls-14"
     d="m 65.075208,280.08 a -6.67,6.67 0 0 1 2.2,2.68 l -0.67,0.23 v 0 l -0.14,0.05 a -6,6 0 0 0 -2,-2.34 c -1.56,-1.19 -4.26,-2.43 -8.86,-2.62 a -33.86,33.86 0 0 1 -13.86,-3.38 l -2.08,-2.14 a -31.88,31.88 0 0 0 16,4.67 c 4.8,0.19 7.71,1.53 9.41,2.85 z"
     id="path102" />
  <polygon
     class="cls-14"
     points="464.46,283.04 464.46,283.04 464.46,283.05 "
     id="polygon104"
     transform="matrix(-1,0,0,1,530.92521,0)" />
  <polygon
     class="cls-14"
     points="464.46,283.04 464.46,283.04 464.32,282.99 "
     id="polygon106"
     transform="matrix(-1,0,0,1,530.92521,0)" />
  <path
     class="cls-14"
     d="m 31.725208,245.15 a -40.85,40.85 0 0 0 -2.54,-12.58 -17.19,17.19 0 0 0 -6.35,-8.23 l 0.63,-0.61 a -18.06,18.06 0 0 1 6.51,8.52 -41.55,41.55 0 0 1 2.6,12.84 -89.63,89.63 0 0 1 -1.11,19 l -0.74,-0.76 a -88.45,88.45 0 0 0 1,-18.18 z"
     id="path108" />
  <path
     class="cls-14"
     d="m 25.205208,249.93 a -47.34,47.34 0 0 0 -3.64,-14.35 c -0.82,-2 -1.61,-3.64 -2.2,-4.8 q -0.4,-0.79 -0.66,-1.26 c 0.16,-0.28 0.34,-0.56 0.51,-0.84 0.74,1.32 6.22,11.33 6.84,21.2 a -22.21,22.21 0 0 1 -0.8,7.82 l -0.68,-0.7 a -21.82,21.82 0 0 0 0.63,-7.07 z"
     id="path110" />
  <path
     class="cls-14"
     d="m 58.075208,233.8 c -2.58,0.16 -5.55,-0.82 -8.77,-3.75 -4.36,-4 -7.67,-6.6 -10.66,-8.19 a -15.56,15.56 0 0 0 -8.81,-2 -26.43,26.43 0 0 0 -2.77,0.34 l 0.3,-0.29 c 0.27,-0.27 0.56,-0.5 0.85,-0.74 0.53,-0.07 1.06,-0.13 1.57,-0.16 a -16.42,16.42 0 0 1 9.26,2.06 c 3.11,1.66 6.46,4.35 10.83,8.32 3.11,2.81 5.83,3.67 8.15,3.53 a -10.73,10.73 0 0 0 7,-3.84 l 0.06,-0.07 0.6,0.61 v 0 a -11.5,11.5 0 0 1 -7.61,4.18 z"
     id="path112" />
  <path
     class="cls-14"
     d="m 43.015208,214 0.26,0.15 h -0.35 z"
     id="path114" />
  <path
     class="cls-14"
     d="m 42.925208,214.16 h 0.35 a -39.37,39.37 0 0 0 11.9,4.79 c 0.41,0.35 0.8,0.72 1.19,1.11 a -39.82,39.82 0 0 1 -13.8,-5.33 z"
     id="path116" />
  <rect
     class="cls-15"
     x="118.82875"
     y="181.60683"
     width="36.450001"
     height="60.66"
     rx="12.34"
     transform="matrix(-0.71764028,0.69641397,0.69641397,0.71764028,0,0)"
     id="rect118" />
  <path
     class="cls-16"
     d="m 30.855208,254.78 13.71,14.13 a -18.28,18.28 0 0 0 25.77,0.39 v 0 a -18.28,18.28 0 0 0 0.39,-25.77"
     id="path120" />
  <path
     class="cls-1"
     d="m 107.56521,311.34 a -24.18,24.18 0 0 0 10.36,-1.54 -17.15,17.15 0 0 0 8.56,-7.47 -15.85,15.85 0 0 0 0.76,-1.54 c 0.07,-0.17 0.11,-0.29 0.13,-0.34 v 0 0 a -6.57,6.57 0 0 1 12.55,3.89 v 0 a -20.91,20.91 0 0 1 -1.59,3.7 -29.73,29.73 0 0 1 -3.47,5.19 -30.12,30.12 0 0 1 -10.42,8.07 -36.67,36.67 0 0 1 -17.5,3.19 -6.5816145,6.5816145 0 0 1 0.59,-13.15 z"
     id="path122" />
  <path
     class="cls-17"
     d="m 106.92521,324.74 a -6.83,6.83 0 0 1 0.61,-13.64 -25.13,25.13 0 0 0 9,-1.07 -17.42,17.42 0 0 0 5.28,-2.75"
     id="path124" />
  <path
     class="cls-17"
     d="m 136.10521,312.1 a -30.59,30.59 0 0 1 -15.28,10.9 -39,39 0 0 1 -13.9,1.74"
     id="path126" />
  <path
     class="cls-4"
     d="m 400.92521,424.21 h -40.62 a -6.35,6.35 0 0 0 -6.35,6.35 v 9.3 h 46.97 z"
     id="path128" />
  <path
     class="cls-4"
     d="m 322.59521,439.86 h 26.84 v -9.3 a 6.35,-6.35 0 0 0 -6.35,-6.35 h -20.49 z"
     id="path130" />
  <path
     class="cls-11"
     d="m 322.59521,424.21 h 19.61 a -7.23,7.23 0 0 1 7.23,7.23 v 8.42 l 37.49,11.27 a -7.46,7.46 0 0 1 5.32,7.15 v 79.59"
     id="path132" />
  <path
     class="cls-11"
     d="m 400.92521,424.21 h -39.72 a -7.24,7.24 0 0 0 -7.25,7.25 v 9.75"
     id="path134" />
</svg>
